<svg width="414" height="64" viewBox="0 0 414 64" fill="none" xmlns="http://www.w3.org/2000/svg">
<path d="M27.5 9.75V13.5C27.5 14.0525 27.0525 14.5 26.5 14.5H15.75C15.06 14.5 14.5 15.06 14.5 15.75V26.5C14.5 27.0525 14.0525 27.5 13.5 27.5H9.75C9.1975 27.5 8.75 27.0525 8.75 26.5V10.25C8.75 9.42125 9.42125 8.75 10.25 8.75H26.5C27.0525 8.75 27.5 9.1975 27.5 9.75ZM36.5 54.25V50.5C36.5 49.9475 36.9475 49.5 37.5 49.5H48.25C48.94 49.5 49.5 48.94 49.5 48.25V37.5C49.5 36.9475 49.9475 36.5 50.5 36.5H54.25C54.8025 36.5 55.25 36.9475 55.25 37.5V53.75C55.25 54.5788 54.5788 55.25 53.75 55.25H37.5C36.9475 55.25 36.5 54.8025 36.5 54.25Z" fill="#FF9100"/>
<path d="M20.835 44.25C20.6012 44.25 20.3975 44.1625 20.2225 43.9875C20.0475 43.8125 19.96 43.6088 19.96 43.375V20.625C19.96 20.3688 20.0475 20.1588 20.2225 19.995C20.3975 19.8325 20.6012 19.75 20.835 19.75H24.615C25.0112 19.75 25.3025 19.85 25.49 20.0475C25.6762 20.2463 25.7925 20.4038 25.84 20.52L32 31.545L38.16 20.52C38.23 20.4038 38.3525 20.2463 38.5275 20.0475C38.7025 19.85 38.9875 19.75 39.385 19.75H43.13C43.3862 19.75 43.6025 19.8325 43.7775 19.995C43.9525 20.1588 44.04 20.3688 44.04 20.625V43.375C44.04 43.6088 43.9525 43.8125 43.7775 43.9875C43.6025 44.1625 43.3862 44.25 43.13 44.25H38.965C38.7075 44.25 38.4925 44.1625 38.3175 43.9875C38.1425 43.8125 38.055 43.6088 38.055 43.375V30.25L34.135 37.565C34.0175 37.775 33.8662 37.9625 33.68 38.125C33.4925 38.2887 33.2362 38.37 32.91 38.37H31.09C30.7625 38.37 30.5062 38.2887 30.32 38.125C30.1325 37.9625 29.9812 37.775 29.865 37.565L25.91 30.25V43.375C25.91 43.6088 25.8275 43.8125 25.665 43.9875C25.5012 44.1625 25.2912 44.25 25.035 44.25H20.835Z" fill="#BFBFBF"/>
<path d="M396.738 44.3C396.186 44.3 395.738 43.8523 395.738 43.3V26.715C395.738 26.1627 396.186 25.715 396.738 25.715H400.103C400.637 25.715 401.077 26.135 401.102 26.6688L401.218 29.1796C401.227 29.3676 401.114 29.5398 400.937 29.6059V29.6059C400.6 29.7322 400.278 29.4201 400.438 29.0978C400.697 28.5757 401.044 28.0898 401.478 27.64C402.155 26.94 402.96 26.38 403.893 25.96C404.826 25.54 405.806 25.33 406.833 25.33C408.233 25.33 409.411 25.6217 410.368 26.205C411.325 26.765 412.048 27.6167 412.538 28.76C413.028 29.88 413.273 31.2567 413.273 32.89V43.3C413.273 43.8523 412.825 44.3 412.273 44.3H408.638C408.086 44.3 407.638 43.8523 407.638 43.3V33.345C407.638 32.5983 407.533 31.98 407.323 31.49C407.113 31 406.786 30.6383 406.343 30.405C405.923 30.1483 405.398 30.0317 404.768 30.055C404.278 30.055 403.823 30.1367 403.403 30.3C402.983 30.44 402.621 30.6617 402.318 30.965C402.015 31.245 401.77 31.5717 401.583 31.945C401.42 32.3183 401.338 32.7267 401.338 33.17V43.3C401.338 43.8523 400.89 44.3 400.338 44.3H398.573C397.92 44.3 397.36 44.3 396.893 44.3C396.84 44.3 396.789 44.3 396.738 44.3Z" fill="#BFBFBF"/>
<path d="M382.066 44.65C380.129 44.65 378.403 44.23 376.886 43.39C375.393 42.55 374.203 41.4067 373.316 39.96C372.453 38.5133 372.021 36.8567 372.021 34.99C372.021 33.1233 372.453 31.4667 373.316 30.02C374.203 28.5733 375.393 27.43 376.886 26.59C378.403 25.75 380.129 25.33 382.066 25.33C384.003 25.33 385.718 25.75 387.211 26.59C388.728 27.43 389.918 28.5733 390.781 30.02C391.644 31.4667 392.076 33.1233 392.076 34.99C392.076 36.8567 391.644 38.5133 390.781 39.96C389.918 41.4067 388.728 42.55 387.211 43.39C385.718 44.23 384.003 44.65 382.066 44.65ZM382.066 39.82C382.906 39.82 383.653 39.61 384.306 39.19C384.959 38.77 385.473 38.1983 385.846 37.475C386.219 36.7517 386.394 35.9233 386.371 34.99C386.394 34.0567 386.219 33.2283 385.846 32.505C385.473 31.7583 384.959 31.175 384.306 30.755C383.653 30.335 382.906 30.125 382.066 30.125C381.226 30.125 380.468 30.335 379.791 30.755C379.138 31.175 378.624 31.7583 378.251 32.505C377.878 33.2283 377.703 34.0567 377.726 34.99C377.703 35.9233 377.878 36.7517 378.251 37.475C378.624 38.1983 379.138 38.77 379.791 39.19C380.468 39.61 381.226 39.82 382.066 39.82Z" fill="#BFBFBF"/>
<path d="M363.454 44.3C362.902 44.3 362.454 43.8523 362.454 43.3V26.715C362.454 26.1627 362.902 25.715 363.454 25.715H367.054C367.607 25.715 368.054 26.1627 368.054 26.715V43.3C368.054 43.8523 367.607 44.3 367.054 44.3H363.454ZM365.254 22.04C364.204 22.04 363.376 21.795 362.769 21.305C362.186 20.7917 361.894 20.0683 361.894 19.135C361.894 18.295 362.198 17.6067 362.804 17.07C363.411 16.5333 364.228 16.265 365.254 16.265C366.304 16.265 367.121 16.5217 367.704 17.035C368.288 17.525 368.579 18.225 368.579 19.135C368.579 19.9983 368.276 20.6983 367.669 21.235C367.086 21.7717 366.281 22.04 365.254 22.04Z" fill="#BFBFBF"/>
<path d="M351.075 44.65C349.255 44.65 347.645 44.3583 346.245 43.775C345.219 43.34 344.348 42.7947 343.632 42.139C343.231 41.7708 343.285 41.1444 343.697 40.7877L345.647 39.0993C346.043 38.756 346.633 38.7843 347.047 39.1065C347.587 39.5269 348.171 39.858 348.8 40.1C349.71 40.4267 350.574 40.59 351.39 40.59C351.717 40.59 352.009 40.555 352.265 40.485C352.522 40.415 352.732 40.3217 352.895 40.205C353.082 40.065 353.222 39.9133 353.315 39.75C353.409 39.5633 353.455 39.3533 353.455 39.12C353.455 38.6533 353.245 38.2917 352.825 38.035C352.615 37.9183 352.265 37.7783 351.775 37.615C351.285 37.4517 350.655 37.265 349.885 37.055C348.789 36.775 347.832 36.4483 347.015 36.075C346.222 35.6783 345.569 35.2233 345.055 34.71C344.589 34.22 344.227 33.6833 343.97 33.1C343.714 32.4933 343.585 31.8167 343.585 31.07C343.585 30.2067 343.784 29.425 344.18 28.725C344.6 28.025 345.149 27.4183 345.825 26.905C346.525 26.3917 347.319 26.0067 348.205 25.75C349.115 25.47 350.049 25.33 351.005 25.33C352.032 25.33 353.012 25.4467 353.945 25.68C354.879 25.9133 355.742 26.24 356.535 26.66C357.043 26.921 357.514 27.2136 357.95 27.5377C358.387 27.8633 358.414 28.4909 358.051 28.8976L356.45 30.6885C356.075 31.1084 355.43 31.13 354.968 30.8069C354.766 30.6649 354.553 30.5309 354.33 30.405C353.817 30.0783 353.28 29.8217 352.72 29.635C352.16 29.4483 351.647 29.355 351.18 29.355C350.83 29.355 350.515 29.39 350.235 29.46C349.979 29.5067 349.757 29.6 349.57 29.74C349.384 29.8567 349.244 30.0083 349.15 30.195C349.057 30.3583 349.01 30.5567 349.01 30.79C349.01 31.0233 349.069 31.245 349.185 31.455C349.325 31.665 349.512 31.84 349.745 31.98C349.979 32.12 350.352 32.2833 350.865 32.47C351.379 32.6333 352.079 32.8433 352.965 33.1C354.062 33.4033 355.007 33.7417 355.8 34.115C356.594 34.4883 357.224 34.9317 357.69 35.445C358.064 35.8417 358.344 36.3083 358.53 36.845C358.717 37.3583 358.81 37.9183 358.81 38.525C358.81 39.715 358.472 40.7767 357.795 41.71C357.142 42.62 356.232 43.3433 355.065 43.88C353.899 44.3933 352.569 44.65 351.075 44.65Z" fill="#BFBFBF"/>
<path d="M323.593 44.3C323.041 44.3 322.593 43.8523 322.593 43.3V26.715C322.593 26.1627 323.041 25.715 323.593 25.715H326.959C327.493 25.715 327.933 26.135 327.958 26.6688L328.074 29.1796C328.083 29.3676 327.969 29.5398 327.793 29.6059V29.6059C327.456 29.7322 327.133 29.4201 327.293 29.0978C327.552 28.5757 327.899 28.0898 328.333 27.64C329.01 26.94 329.815 26.38 330.748 25.96C331.682 25.54 332.662 25.33 333.688 25.33C335.088 25.33 336.267 25.6217 337.223 26.205C338.18 26.765 338.903 27.6167 339.393 28.76C339.883 29.88 340.128 31.2567 340.128 32.89V43.3C340.128 43.8523 339.681 44.3 339.128 44.3H335.493C334.941 44.3 334.493 43.8523 334.493 43.3V33.345C334.493 32.5983 334.388 31.98 334.178 31.49C333.968 31 333.642 30.6383 333.198 30.405C332.778 30.1483 332.253 30.0317 331.623 30.055C331.133 30.055 330.678 30.1367 330.258 30.3C329.838 30.44 329.477 30.6617 329.173 30.965C328.87 31.245 328.625 31.5717 328.438 31.945C328.275 32.3183 328.193 32.7267 328.193 33.17V43.3C328.193 43.8523 327.746 44.3 327.193 44.3H325.428C324.775 44.3 324.215 44.3 323.748 44.3C323.696 44.3 323.644 44.3 323.593 44.3Z" fill="#BFBFBF"/>
<path d="M310.941 44.65C308.887 44.65 307.102 44.2417 305.586 43.425C304.069 42.585 302.891 41.4533 302.051 40.03C301.211 38.5833 300.791 36.9383 300.791 35.095C300.791 33.6717 301.024 32.365 301.491 31.175C301.957 29.985 302.611 28.9583 303.451 28.095C304.291 27.2083 305.282 26.5317 306.426 26.065C307.592 25.575 308.864 25.33 310.241 25.33C311.547 25.33 312.737 25.5633 313.811 26.03C314.907 26.4967 315.852 27.15 316.646 27.99C317.439 28.83 318.046 29.8217 318.466 30.965C318.886 32.1083 319.072 33.3567 319.026 34.71L319.013 35.2383C319.001 35.7813 318.557 36.215 318.014 36.215H304.962C304.505 36.215 304.106 35.9053 303.993 35.4626L303.699 34.3126C303.538 33.6802 304.016 33.065 304.668 33.065H314.029C314.188 33.065 314.272 33.253 314.166 33.3714V33.3714C314.054 33.4972 313.846 33.4176 313.846 33.2488V33.03C313.799 32.4467 313.612 31.9333 313.286 31.49C312.982 31.0233 312.574 30.6617 312.061 30.405C311.547 30.1483 310.964 30.02 310.311 30.02C309.401 30.02 308.619 30.2067 307.966 30.58C307.336 30.93 306.857 31.455 306.531 32.155C306.204 32.8317 306.041 33.6717 306.041 34.675C306.041 35.7017 306.251 36.6 306.671 37.37C307.114 38.1167 307.744 38.7 308.561 39.12C309.401 39.54 310.392 39.75 311.536 39.75C312.329 39.75 313.029 39.6333 313.636 39.4C314.011 39.261 314.403 39.0641 314.811 38.8091C315.294 38.5078 315.94 38.5976 316.269 39.0622L317.768 41.1821C318.065 41.6011 317.999 42.1811 317.586 42.4859C317.073 42.8649 316.537 43.1895 315.981 43.46C315.164 43.8567 314.324 44.1483 313.461 44.335C312.621 44.545 311.781 44.65 310.941 44.65Z" fill="#BFBFBF"/>
<path d="M290.851 44.3C290.299 44.3 289.851 43.8523 289.851 43.3V22.025C289.851 21.4727 290.299 21.025 290.851 21.025H294.451C295.003 21.025 295.451 21.4727 295.451 22.025V43.3C295.451 43.8523 295.003 44.3 294.451 44.3H290.851ZM287.561 30.615C287.009 30.615 286.561 30.1673 286.561 29.615V26.715C286.561 26.1627 287.009 25.715 287.561 25.715H298.056C298.608 25.715 299.056 26.1627 299.056 26.715V29.615C299.056 30.1673 298.608 30.615 298.056 30.615H287.561Z" fill="#BFBFBF"/>
<path d="M279.068 44.3C278.733 44.3 278.419 44.1315 278.234 43.8513L274.576 38.315L272.756 35.76L266.569 27.3055C266.086 26.6449 266.558 25.715 267.376 25.715H271.591C271.925 25.715 272.237 25.8816 272.423 26.1591L275.941 31.42L277.936 34.15L284.052 42.719C284.525 43.3809 284.051 44.3 283.238 44.3H279.068ZM267.18 44.3C266.365 44.3 265.892 43.3783 266.368 42.7167L271.968 34.9182C272.349 34.3873 273.129 34.3589 273.548 34.8606L275.286 36.9424C275.553 37.2627 275.594 37.7154 275.387 38.078L272.133 43.7947C271.955 44.1071 271.624 44.3 271.264 44.3H267.18ZM278.265 35.1393C277.888 35.6807 277.099 35.7148 276.676 35.2078L274.97 33.1607C274.71 32.8488 274.665 32.4107 274.855 32.052L277.934 26.2465C278.107 25.9195 278.447 25.715 278.817 25.715H282.915C283.723 25.715 284.198 26.6236 283.736 27.2866L278.265 35.1393Z" fill="#BFBFBF"/>
<path d="M246.122 44.3C245.57 44.3 245.122 43.8523 245.122 43.3V20.8C245.122 20.2477 245.57 19.8 246.122 19.8H261.202C261.754 19.8 262.202 20.2477 262.202 20.8V23.875C262.202 24.4273 261.754 24.875 261.202 24.875H251.897C251.345 24.875 250.897 25.3227 250.897 25.875V38.225C250.897 38.7773 251.345 39.225 251.897 39.225H261.552C262.104 39.225 262.552 39.6727 262.552 40.225V43.3C262.552 43.8523 262.104 44.3 261.552 44.3H246.122ZM248.922 34.255C248.37 34.255 247.922 33.8073 247.922 33.255V30.425C247.922 29.8727 248.37 29.425 248.922 29.425H259.627C260.179 29.425 260.627 29.8727 260.627 30.425V33.255C260.627 33.8073 260.179 34.255 259.627 34.255H248.922Z" fill="#BFBFBF"/>
<path d="M232.655 44.685C231.815 44.685 231.01 44.5683 230.24 44.335C229.47 44.1017 228.77 43.7867 228.14 43.39C227.533 42.9933 227.02 42.5383 226.6 42.025C226.314 41.638 226.095 41.245 225.942 40.8459C225.843 40.5877 225.996 40.3111 226.257 40.2215V40.2215C226.619 40.0976 226.989 40.3831 226.961 40.764L226.773 43.338C226.734 43.8606 226.299 44.265 225.775 44.265H222.49C221.938 44.265 221.49 43.8173 221.49 43.265V19.4C221.49 18.8477 221.938 18.4 222.49 18.4H226.125C226.677 18.4 227.125 18.8477 227.125 19.4V29.4013C227.125 29.7701 226.758 30.0268 226.412 29.9007V29.9007C226.16 29.809 226.012 29.5419 226.101 29.2886C226.254 28.853 226.479 28.4435 226.775 28.06C227.172 27.5233 227.673 27.0567 228.28 26.66C228.887 26.24 229.552 25.9133 230.275 25.68C230.998 25.4467 231.745 25.33 232.515 25.33C234.125 25.33 235.548 25.75 236.785 26.59C238.045 27.4067 239.037 28.55 239.76 30.02C240.483 31.4667 240.845 33.1233 240.845 34.99C240.845 36.88 240.483 38.56 239.76 40.03C239.06 41.4767 238.092 42.62 236.855 43.46C235.618 44.2767 234.218 44.685 232.655 44.685ZM231.185 39.96C232.025 39.96 232.76 39.75 233.39 39.33C234.02 38.91 234.498 38.3383 234.825 37.615C235.175 36.8683 235.35 35.9933 235.35 34.99C235.35 34.01 235.175 33.1467 234.825 32.4C234.498 31.6533 234.02 31.0817 233.39 30.685C232.76 30.2883 232.025 30.09 231.185 30.09C230.322 30.09 229.575 30.2883 228.945 30.685C228.315 31.0817 227.825 31.6533 227.475 32.4C227.125 33.1467 226.95 34.01 226.95 34.99C226.95 35.9933 227.125 36.8683 227.475 37.615C227.825 38.3383 228.315 38.91 228.945 39.33C229.575 39.75 230.322 39.96 231.185 39.96Z" fill="#BFBFBF"/>
<path d="M211.628 44.3C211.076 44.3 210.628 43.8523 210.628 43.3V26.715C210.628 26.1627 211.076 25.715 211.628 25.715H215.228C215.78 25.715 216.228 26.1627 216.228 26.715V43.3C216.228 43.8523 215.78 44.3 215.228 44.3H211.628ZM213.428 22.04C212.378 22.04 211.55 21.795 210.943 21.305C210.36 20.7917 210.068 20.0683 210.068 19.135C210.068 18.295 210.371 17.6067 210.978 17.07C211.585 16.5333 212.401 16.265 213.428 16.265C214.478 16.265 215.295 16.5217 215.878 17.035C216.461 17.525 216.753 18.225 216.753 19.135C216.753 19.9983 216.45 20.6983 215.843 21.235C215.26 21.7717 214.455 22.04 213.428 22.04Z" fill="#BFBFBF"/>
<path d="M190.58 44.3C190.028 44.3 189.58 43.8523 189.58 43.3V20.8C189.58 20.2477 190.028 19.8 190.58 19.8H194.53C195.082 19.8 195.53 20.2477 195.53 20.8V38.05C195.53 38.6023 195.978 39.05 196.53 39.05H205.45C206.002 39.05 206.45 39.4977 206.45 40.05V43.3C206.45 43.8523 206.002 44.3 205.45 44.3H190.58Z" fill="#BFBFBF"/>
<path d="M172.774 44.615C171.21 44.615 169.81 44.2067 168.574 43.39C167.36 42.55 166.392 41.4067 165.669 39.96C164.945 38.49 164.584 36.8333 164.584 34.99C164.584 33.1 164.945 31.4317 165.669 29.985C166.392 28.5383 167.384 27.4067 168.644 26.59C169.904 25.75 171.339 25.33 172.949 25.33C173.835 25.33 174.64 25.4583 175.364 25.715C176.11 25.9717 176.764 26.3333 177.324 26.8C177.884 27.2433 178.362 27.7683 178.759 28.375C179.017 28.7549 179.231 29.1545 179.4 29.5739C179.53 29.8967 179.255 30.2191 178.909 30.1772V30.1772C178.663 30.1474 178.479 29.9389 178.479 29.6915V26.715C178.479 26.1627 178.926 25.715 179.479 25.715H183.044C183.596 25.715 184.044 26.1627 184.044 26.715V43.3C184.044 43.8523 183.596 44.3 183.044 44.3H179.374C178.821 44.3 178.374 43.8523 178.374 43.3V40.3445C178.374 40.0525 178.606 39.8135 178.898 39.8054V39.8054C179.262 39.7953 179.531 40.1429 179.386 40.4777C179.213 40.8794 178.992 41.2669 178.724 41.64C178.304 42.2233 177.79 42.7367 177.184 43.18C176.577 43.6233 175.9 43.9733 175.154 44.23C174.407 44.4867 173.614 44.615 172.774 44.615ZM174.314 39.89C175.177 39.89 175.924 39.6917 176.554 39.295C177.184 38.8983 177.674 38.3383 178.024 37.615C178.374 36.8683 178.549 35.9933 178.549 34.99C178.549 33.9867 178.374 33.1233 178.024 32.4C177.674 31.6533 177.184 31.0817 176.554 30.685C175.924 30.265 175.177 30.055 174.314 30.055C173.474 30.055 172.739 30.265 172.109 30.685C171.502 31.0817 171.024 31.6533 170.674 32.4C170.324 33.1233 170.149 33.9867 170.149 34.99C170.149 35.9933 170.324 36.8683 170.674 37.615C171.024 38.3383 171.502 38.8983 172.109 39.295C172.739 39.6917 173.474 39.89 174.314 39.89Z" fill="#BFBFBF"/>
<path d="M151.006 52.35C149.489 52.35 147.972 52.1283 146.456 51.685C145.308 51.3442 144.325 50.9275 143.508 50.435C143.094 50.1856 142.973 49.6558 143.189 49.2235L144.269 47.0632C144.538 46.5252 145.217 46.3484 145.758 46.6122C145.961 46.7112 146.17 46.8038 146.386 46.89C146.992 47.1467 147.622 47.345 148.276 47.485C148.929 47.625 149.594 47.695 150.271 47.695C151.461 47.695 152.429 47.52 153.176 47.17C153.922 46.82 154.482 46.2833 154.856 45.56C155.229 44.86 155.416 43.9733 155.416 42.9V40.3651C155.416 40.0609 155.688 39.8289 155.988 39.8774V39.8774C156.267 39.9223 156.454 40.1931 156.357 40.4582C156.146 41.0347 155.785 41.5687 155.276 42.06C154.646 42.69 153.864 43.2033 152.931 43.6C151.997 43.9733 151.006 44.16 149.956 44.16C148.276 44.16 146.771 43.775 145.441 43.005C144.134 42.2117 143.096 41.1267 142.326 39.75C141.579 38.35 141.206 36.74 141.206 34.92C141.206 33.0533 141.579 31.4083 142.326 29.985C143.072 28.5383 144.099 27.4067 145.406 26.59C146.712 25.75 148.182 25.33 149.816 25.33C150.516 25.33 151.181 25.4117 151.811 25.575C152.464 25.7383 153.059 25.96 153.596 26.24C154.156 26.4967 154.646 26.8117 155.066 27.185C155.509 27.535 155.859 27.92 156.116 28.34C156.294 28.6072 156.434 28.8792 156.537 29.1559C156.633 29.4167 156.461 29.6871 156.19 29.7526V29.7526C155.856 29.8337 155.538 29.5703 155.555 29.2267L155.683 26.6651C155.71 26.1329 156.149 25.715 156.682 25.715H160.051C160.603 25.715 161.051 26.1627 161.051 26.715V42.795C161.051 44.3117 160.817 45.6533 160.351 46.82C159.907 48.01 159.242 49.0133 158.356 49.83C157.492 50.67 156.442 51.3 155.206 51.72C153.969 52.14 152.569 52.35 151.006 52.35ZM151.146 39.82C152.056 39.82 152.837 39.6217 153.491 39.225C154.167 38.805 154.681 38.2333 155.031 37.51C155.404 36.7867 155.591 35.935 155.591 34.955C155.591 33.975 155.404 33.1233 155.031 32.4C154.681 31.6533 154.167 31.0817 153.491 30.685C152.837 30.265 152.056 30.055 151.146 30.055C150.259 30.055 149.489 30.265 148.836 30.685C148.182 31.0817 147.669 31.6533 147.296 32.4C146.946 33.1233 146.771 33.975 146.771 34.955C146.771 35.935 146.946 36.7867 147.296 37.51C147.669 38.2333 148.182 38.805 148.836 39.225C149.489 39.6217 150.259 39.82 151.146 39.82Z" fill="#BFBFBF"/>
<path d="M121.284 44.3C120.731 44.3 120.284 43.8523 120.284 43.3V26.715C120.284 26.1627 120.732 25.715 121.284 25.715H124.649C125.183 25.715 125.623 26.135 125.648 26.6688L125.764 29.1797C125.773 29.3676 125.659 29.5398 125.483 29.6058V29.6058C125.146 29.7322 124.824 29.4201 124.984 29.0978C125.243 28.5758 125.589 28.0898 126.024 27.64C126.7 26.94 127.505 26.38 128.439 25.96C129.372 25.54 130.352 25.33 131.379 25.33C132.779 25.33 133.957 25.6217 134.914 26.205C135.87 26.765 136.594 27.6167 137.084 28.76C137.574 29.88 137.819 31.2567 137.819 32.89V43.3C137.819 43.8523 137.371 44.3 136.819 44.3H133.184C132.632 44.3 132.184 43.8523 132.184 43.3V33.345C132.184 32.5983 132.079 31.98 131.869 31.49C131.659 31 131.332 30.6383 130.889 30.405C130.469 30.1483 129.944 30.0317 129.314 30.055C128.824 30.055 128.369 30.1367 127.949 30.3C127.529 30.44 127.167 30.6617 126.864 30.965C126.56 31.245 126.315 31.5717 126.129 31.945C125.965 32.3183 125.884 32.7267 125.884 33.17V43.3C125.884 43.8523 125.436 44.3 124.884 44.3H123.119C122.465 44.3 121.905 44.3 121.439 44.3C121.386 44.3 121.334 44.3 121.284 44.3Z" fill="#BFBFBF"/>
<path d="M104.073 44.615C102.509 44.615 101.109 44.2067 99.8725 43.39C98.6592 42.55 97.6909 41.4067 96.9675 39.96C96.2442 38.49 95.8825 36.8333 95.8825 34.99C95.8825 33.1 96.2442 31.4317 96.9675 29.985C97.6909 28.5383 98.6825 27.4067 99.9425 26.59C101.203 25.75 102.638 25.33 104.248 25.33C105.134 25.33 105.939 25.4583 106.663 25.715C107.409 25.9717 108.063 26.3333 108.623 26.8C109.183 27.2433 109.661 27.7683 110.058 28.375C110.316 28.7549 110.53 29.1545 110.699 29.5739C110.829 29.8967 110.553 30.2191 110.208 30.1772V30.1772C109.962 30.1474 109.778 29.9389 109.778 29.6915V26.715C109.778 26.1627 110.225 25.715 110.778 25.715H114.343C114.895 25.715 115.343 26.1627 115.343 26.715V43.3C115.343 43.8523 114.895 44.3 114.343 44.3H110.673C110.12 44.3 109.673 43.8523 109.673 43.3V40.3445C109.673 40.0525 109.905 39.8135 110.197 39.8054V39.8054C110.561 39.7953 110.83 40.1429 110.685 40.4777C110.512 40.8794 110.291 41.2669 110.023 41.64C109.603 42.2233 109.089 42.7367 108.483 43.18C107.876 43.6233 107.199 43.9733 106.453 44.23C105.706 44.4867 104.913 44.615 104.073 44.615ZM105.613 39.89C106.476 39.89 107.223 39.6917 107.853 39.295C108.483 38.8983 108.973 38.3383 109.323 37.615C109.673 36.8683 109.848 35.9933 109.848 34.99C109.848 33.9867 109.673 33.1233 109.323 32.4C108.973 31.6533 108.483 31.0817 107.853 30.685C107.223 30.265 106.476 30.055 105.613 30.055C104.773 30.055 104.038 30.265 103.408 30.685C102.801 31.0817 102.323 31.6533 101.973 32.4C101.623 33.1233 101.448 33.9867 101.448 34.99C101.448 35.9933 101.623 36.8683 101.973 37.615C102.323 38.3383 102.801 38.8983 103.408 39.295C104.038 39.6917 104.773 39.89 105.613 39.89Z" fill="#BFBFBF"/>
<path d="M68.08 44.3C67.5277 44.3 67.08 43.8523 67.08 43.3V20.8C67.08 20.2477 67.5277 19.8 68.08 19.8H71.8408C72.1883 19.8 72.5108 19.9804 72.6928 20.2765L80.3787 32.7849C80.7902 33.4547 80.3036 34.3156 79.5175 34.3084L79.2921 34.3064C78.5114 34.2992 78.0396 33.4401 78.4526 32.7775L86.2464 20.2711C86.429 19.9781 86.7498 19.8 87.0951 19.8H90.65C91.2023 19.8 91.65 20.2477 91.65 20.8V43.3C91.65 43.8523 91.2023 44.3 90.65 44.3H86.875C86.3227 44.3 85.875 43.8523 85.875 43.3V36.67C85.875 34.57 85.9217 32.68 86.015 31C86.0918 29.8936 86.199 28.7923 86.3366 27.6961C86.3935 27.2425 87.0076 27.1791 87.1645 27.6084V27.6084C87.2121 27.7386 87.1959 27.8834 87.1208 27.9999L80.7453 37.8917C80.5612 38.1774 80.2446 38.35 79.9048 38.35H78.6894C78.3472 38.35 78.0288 38.1751 77.8453 37.8863L71.6088 28.072C71.5338 27.9539 71.5171 27.808 71.5635 27.676V27.676C71.7202 27.2308 72.3501 27.2904 72.4075 27.7589C72.5305 28.7626 72.6214 29.7846 72.68 30.825C72.7967 32.4583 72.855 34.4067 72.855 36.67V43.3C72.855 43.8523 72.4073 44.3 71.855 44.3H68.08Z" fill="#BFBFBF"/>
</svg>
