<?xml version="1.0" encoding="utf-8"?>
<!-- Uploaded to: SVG Repo, www.svgrepo.com, Generator: SVG Repo Mixer Tools -->
<svg class="svg-inline--fa fa-circle-info svg-toast" aria-hidden="true" focusable="false" data-prefix="fas"
  data-icon="circle-info" role="img" xmlns="http://www.w3.org/2000/svg" viewBox="0 0 512 512">
  <path class="" fill="currentColor"
    d="M256 512A256 256 0 1 0 256 0a256 256 0 1 0 0 512zM216 336h24V272H216c-13.3 0-24-10.7-24-24s10.7-24 24-24h48c13.3 0 24 10.7 24 24v88h8c13.3 0 24 10.7 24 24s-10.7 24-24 24H216c-13.3 0-24-10.7-24-24s10.7-24 24-24zm40-208a32 32 0 1 1 0 64 32 32 0 1 1 0-64z"></path>
</svg>
